PathFileType	4	(X/Y/Z)	TVC_26_Cal_03_0_static_RCNL2025.trc
DataRate	CameraRate	NumFrames	NumMarkers	Units	OrigDataRate	OrigDataStartFrame	OrigNumFrames
100	100	6	27	mm	100	1	420
Frame#	Time	R_Shoulder			L_Shoulder			C7			J_Notch			R_Elbow			L_Elbow			R_Wrist			L_Wrist			R_Asis			L_Asis			R_Psis			L_Psis			Sacral			Thoracic			Sternum			R_Thigh_Lateral			R_Knee_Lateral			R_Shank_Lateral			R_Ankle_Lateral			R_Heel			R_Toe			L_Thigh_Lateral			L_Knee_Lateral			L_Shank_Lateral			L_Ankle_Lateral			L_Heel			L_Toe		
		X1	Y1	Z1	X2	Y2	Z2	X3	Y3	Z3	X4	Y4	Z4	X5	Y5	Z5	X6	Y6	Z6	X7	Y7	Z7	X8	Y8	Z8	X9	Y9	Z9	X10	Y10	Z10	X11	Y11	Z11	X12	Y12	Z12	X13	Y13	Z13	X14	Y14	Z14	X15	Y15	Z15	X16	Y16	Z16	X17	Y17	Z17	X18	Y18	Z18	X19	Y19	Z19	X20	Y20	Z20	X21	Y21	Z21	X22	Y22	Z22	X23	Y23	Z23	X24	Y24	Z24	X25	Y25	Z25	X26	Y26	Z26	X27	Y27	Z27
1	0.00000000	-179.913803	1355.037720	-119.049263	-100.845695	1385.331421	-431.525055	-216.501495	1416.989624	-286.589630	-80.933319	1310.545044	-253.053223	-198.697464	1028.438843	12.608166	-100.599693	1052.486572	-521.946655	-185.826706	815.078949	39.047548	-93.223343	830.416565	-505.868912	-123.990639	960.928589	-117.205246	-50.290447	957.811279	-392.459076	-314.424194	973.698425	-251.010849	-268.415619	966.787354	-391.255920	-291.419907	970.242889	-321.133385	-286.168976	1140.937866	-326.412170	-33.394867	1076.590942	-261.098358	-226.898041	580.132507	-86.813499	-239.411148	434.311768	-135.041336	-257.803223	282.893677	-83.693825	-269.197540	76.187202	-135.935028	-313.235626	54.854794	-184.680649	-129.013794	39.941738	-150.033081	-84.927963	584.266357	-451.995239	-181.163101	416.519592	-421.401764	-163.133102	268.475098	-457.458374	-195.415543	67.706253	-389.896637	-251.189346	50.763607	-347.990295	-60.022762	39.854469	-350.546387
2	0.01000000	-179.601227	1354.993530	-118.931931	-100.573364	1385.435303	-431.542969	-216.272690	1416.963379	-286.489380	-80.822449	1310.280273	-252.731293	-198.331528	1028.454102	12.619543	-100.286247	1052.552612	-521.914917	-185.629829	814.713623	39.133148	-93.196899	830.318329	-505.835220	-123.542007	960.743530	-116.923576	-50.071411	957.776794	-392.392578	-314.196472	973.726318	-250.934784	-268.229095	966.904724	-391.280914	-291.212784	970.315521	-321.107849	-285.961639	1140.924194	-326.296082	-33.105648	1076.516724	-261.111389	-227.031952	580.156433	-86.825676	-239.241791	434.219879	-134.978714	-257.782806	282.903748	-83.691940	-269.206787	76.216187	-135.935852	-313.188873	55.129692	-184.843170	-128.961975	39.923672	-149.976562	-84.817589	584.302307	-451.913239	-181.117371	416.445404	-421.326813	-163.027649	268.529785	-457.460175	-195.393433	67.695763	-389.802582	-251.213501	50.735107	-347.948669	-60.002747	39.862514	-350.587982
3	0.02000000	-179.230988	1355.092651	-118.907181	-100.321678	1385.379883	-431.438293	-216.025116	1416.984497	-286.463135	-80.695244	1310.254150	-252.708466	-199.431290	1027.147827	12.849498	-100.171936	1052.471191	-521.782227	-185.349808	814.691254	39.161606	-93.105236	830.229858	-505.690292	-123.004990	960.900330	-116.938934	-49.875477	957.734253	-392.381287	-313.966980	973.769531	-250.860291	-268.183228	966.637817	-391.178467	-291.075104	970.203674	-321.019379	-285.670319	1140.890259	-326.239899	-32.982700	1076.458740	-261.061066	-227.123489	580.265503	-86.957817	-239.351456	434.137787	-134.670807	-257.809662	282.938507	-83.744164	-269.254547	76.218735	-135.911697	-313.213470	54.826488	-184.740677	-128.955887	39.923325	-149.988312	-84.785233	584.300842	-451.940186	-181.000763	416.436401	-421.241272	-162.999649	268.545624	-457.471832	-195.428268	67.671829	-389.789581	-251.222778	50.679108	-347.944702	-59.953091	39.819691	-350.577118
4	0.03000000	-178.898895	1354.995117	-118.803780	-100.072990	1385.387451	-431.425385	-215.713394	1416.922119	-286.384277	-80.363327	1310.319702	-252.708542	-199.675812	1026.875977	12.967549	-100.063095	1052.425903	-521.653015	-184.969864	815.003815	39.071042	-92.996983	830.112610	-505.476700	-122.818535	960.872070	-117.070038	-49.670128	957.788391	-392.482086	-313.753143	973.840942	-250.775131	-268.088806	966.573669	-391.083374	-290.920975	970.207306	-320.929253	-285.501282	1140.970825	-326.252441	-32.717983	1076.431885	-261.036377	-226.890518	580.153259	-86.726097	-239.293777	434.269684	-134.708527	-257.775177	282.921997	-83.718254	-269.242523	76.258865	-135.943054	-313.111481	54.739151	-184.979355	-128.966446	39.939247	-149.991013	-84.773506	584.232239	-452.092712	-180.920502	416.402283	-421.247833	-162.775955	268.586365	-457.576904	-195.466965	67.431740	-389.823578	-251.224075	50.736366	-348.049164	-59.983833	39.869122	-350.571320
5	0.04000000	-178.597641	1354.924194	-118.734398	-99.799019	1385.295532	-431.371582	-215.544327	1416.904419	-286.297729	-80.058723	1310.209717	-252.682938	-199.353104	1027.108887	12.774852	-99.831177	1052.356445	-521.572998	-184.744690	814.968414	39.102953	-92.897797	830.143402	-505.454147	-122.827057	960.584778	-117.037857	-49.558037	957.646973	-392.436462	-313.592651	973.898682	-250.769363	-267.946411	966.635803	-391.035645	-290.769531	970.267242	-320.902504	-285.355652	1141.018066	-326.252594	-32.521343	1076.350098	-261.099640	-227.044724	580.344238	-87.056854	-239.024277	434.277954	-134.748825	-257.783569	282.960907	-83.759773	-269.268890	76.185051	-136.012238	-313.189453	54.786411	-184.764191	-128.983093	39.933140	-150.075180	-84.742180	584.236633	-452.138184	-180.908478	416.423004	-421.260315	-162.739960	268.596466	-457.537048	-195.496735	67.577560	-389.900970	-251.228851	50.750214	-348.052490	-59.994068	39.846020	-350.663513
6	0.05000000	-178.267380	1355.041626	-118.745789	-99.573128	1385.356445	-431.305359	-215.307114	1417.010742	-286.361450	-79.942863	1310.197021	-252.583755	-199.096359	1027.068115	12.710688	-99.666672	1052.355469	-521.567444	-184.498100	814.952576	39.115277	-92.851681	830.224976	-505.382446	-122.955238	960.445251	-116.998283	-49.583164	957.605164	-392.392365	-313.362091	973.919922	-250.706268	-267.725586	966.737183	-391.108704	-290.543839	970.328552	-320.907486	-285.169525	1141.060547	-326.127930	-32.306129	1076.299683	-260.985535	-226.878433	580.230530	-86.860695	-238.991943	434.225037	-134.727081	-257.915649	282.940063	-83.919777	-269.254364	76.156136	-136.034546	-313.193665	54.824375	-184.734619	-129.025024	39.979805	-150.016510	-84.707573	584.262817	-452.227356	-180.767960	416.415588	-421.231873	-162.803696	268.531036	-457.481964	-195.410980	67.680466	-389.903442	-251.224472	50.746037	-348.057526	-59.978443	39.774673	-350.624908
